<mxfile host="app.diagrams.net" modified="2021-09-01T09:09:18.888Z" agent="5.0 (Windows NT 10.0; Win64; x64) AppleWebKit/537.36 (KHTML, like Gecko) Chrome/92.0.4515.159 Safari/537.36 Edg/92.0.902.84" etag="C-RKgnXqSyoMXiDB4SlQ" version="14.4.4" type="github" pages="2">
  <diagram id="C5RBs43oDa-KdzZeNtuy" name="Page-1">
    <mxGraphModel dx="1054" dy="653" grid="1" gridSize="10" guides="1" tooltips="1" connect="1" arrows="1" fold="1" page="1" pageScale="1" pageWidth="827" pageHeight="1169" math="0" shadow="0">
      <root>
        <mxCell id="WIyWlLk6GJQsqaUBKTNV-0" />
        <mxCell id="WIyWlLk6GJQsqaUBKTNV-1" parent="WIyWlLk6GJQsqaUBKTNV-0" />
        <mxCell id="WIyWlLk6GJQsqaUBKTNV-2" value="" style="rounded=0;html=1;jettySize=auto;orthogonalLoop=1;fontSize=11;endArrow=block;endFill=0;endSize=8;strokeWidth=1;shadow=0;labelBackgroundColor=none;edgeStyle=orthogonalEdgeStyle;" parent="WIyWlLk6GJQsqaUBKTNV-1" source="WIyWlLk6GJQsqaUBKTNV-3" target="WIyWlLk6GJQsqaUBKTNV-6" edge="1">
          <mxGeometry relative="1" as="geometry" />
        </mxCell>
        <mxCell id="WIyWlLk6GJQsqaUBKTNV-3" value="Lamp doesn&#39;t work" style="rounded=1;whiteSpace=wrap;html=1;fontSize=12;glass=0;strokeWidth=1;shadow=0;" parent="WIyWlLk6GJQsqaUBKTNV-1" vertex="1">
          <mxGeometry x="160" y="80" width="120" height="40" as="geometry" />
        </mxCell>
        <mxCell id="WIyWlLk6GJQsqaUBKTNV-4" value="Yes" style="rounded=0;html=1;jettySize=auto;orthogonalLoop=1;fontSize=11;endArrow=block;endFill=0;endSize=8;strokeWidth=1;shadow=0;labelBackgroundColor=none;edgeStyle=orthogonalEdgeStyle;" parent="WIyWlLk6GJQsqaUBKTNV-1" source="WIyWlLk6GJQsqaUBKTNV-6" target="WIyWlLk6GJQsqaUBKTNV-10" edge="1">
          <mxGeometry y="20" relative="1" as="geometry">
            <mxPoint as="offset" />
          </mxGeometry>
        </mxCell>
        <mxCell id="WIyWlLk6GJQsqaUBKTNV-5" value="No" style="edgeStyle=orthogonalEdgeStyle;rounded=0;html=1;jettySize=auto;orthogonalLoop=1;fontSize=11;endArrow=block;endFill=0;endSize=8;strokeWidth=1;shadow=0;labelBackgroundColor=none;" parent="WIyWlLk6GJQsqaUBKTNV-1" source="WIyWlLk6GJQsqaUBKTNV-6" target="WIyWlLk6GJQsqaUBKTNV-7" edge="1">
          <mxGeometry y="10" relative="1" as="geometry">
            <mxPoint as="offset" />
          </mxGeometry>
        </mxCell>
        <mxCell id="WIyWlLk6GJQsqaUBKTNV-6" value="Lamp&lt;br&gt;plugged in?" style="rhombus;whiteSpace=wrap;html=1;shadow=0;fontFamily=Helvetica;fontSize=12;align=center;strokeWidth=1;spacing=6;spacingTop=-4;" parent="WIyWlLk6GJQsqaUBKTNV-1" vertex="1">
          <mxGeometry x="170" y="170" width="100" height="80" as="geometry" />
        </mxCell>
        <mxCell id="WIyWlLk6GJQsqaUBKTNV-7" value="Plug in lamp" style="rounded=1;whiteSpace=wrap;html=1;fontSize=12;glass=0;strokeWidth=1;shadow=0;" parent="WIyWlLk6GJQsqaUBKTNV-1" vertex="1">
          <mxGeometry x="320" y="190" width="120" height="40" as="geometry" />
        </mxCell>
        <mxCell id="WIyWlLk6GJQsqaUBKTNV-8" value="No" style="rounded=0;html=1;jettySize=auto;orthogonalLoop=1;fontSize=11;endArrow=block;endFill=0;endSize=8;strokeWidth=1;shadow=0;labelBackgroundColor=none;edgeStyle=orthogonalEdgeStyle;" parent="WIyWlLk6GJQsqaUBKTNV-1" source="WIyWlLk6GJQsqaUBKTNV-10" target="WIyWlLk6GJQsqaUBKTNV-11" edge="1">
          <mxGeometry x="0.3333" y="20" relative="1" as="geometry">
            <mxPoint as="offset" />
          </mxGeometry>
        </mxCell>
        <mxCell id="WIyWlLk6GJQsqaUBKTNV-9" value="Yes" style="edgeStyle=orthogonalEdgeStyle;rounded=0;html=1;jettySize=auto;orthogonalLoop=1;fontSize=11;endArrow=block;endFill=0;endSize=8;strokeWidth=1;shadow=0;labelBackgroundColor=none;" parent="WIyWlLk6GJQsqaUBKTNV-1" source="WIyWlLk6GJQsqaUBKTNV-10" target="WIyWlLk6GJQsqaUBKTNV-12" edge="1">
          <mxGeometry y="10" relative="1" as="geometry">
            <mxPoint as="offset" />
          </mxGeometry>
        </mxCell>
        <mxCell id="WIyWlLk6GJQsqaUBKTNV-10" value="Bulb&lt;br&gt;burned out?" style="rhombus;whiteSpace=wrap;html=1;shadow=0;fontFamily=Helvetica;fontSize=12;align=center;strokeWidth=1;spacing=6;spacingTop=-4;" parent="WIyWlLk6GJQsqaUBKTNV-1" vertex="1">
          <mxGeometry x="170" y="290" width="100" height="80" as="geometry" />
        </mxCell>
        <mxCell id="WIyWlLk6GJQsqaUBKTNV-11" value="Repair Lamp" style="rounded=1;whiteSpace=wrap;html=1;fontSize=12;glass=0;strokeWidth=1;shadow=0;" parent="WIyWlLk6GJQsqaUBKTNV-1" vertex="1">
          <mxGeometry x="160" y="430" width="120" height="40" as="geometry" />
        </mxCell>
        <mxCell id="WIyWlLk6GJQsqaUBKTNV-12" value="Replace Bulb" style="rounded=1;whiteSpace=wrap;html=1;fontSize=12;glass=0;strokeWidth=1;shadow=0;" parent="WIyWlLk6GJQsqaUBKTNV-1" vertex="1">
          <mxGeometry x="320" y="310" width="120" height="40" as="geometry" />
        </mxCell>
      </root>
    </mxGraphModel>
  </diagram>
  <diagram id="8a6BTgJs0y2HGN33gbqx" name="Page-2">
    <mxGraphModel dx="1282" dy="800" grid="1" gridSize="10" guides="1" tooltips="1" connect="1" arrows="1" fold="1" page="1" pageScale="1" pageWidth="827" pageHeight="1169" math="0" shadow="0">
      <root>
        <mxCell id="Q-vmy_DxmDbjZRM_NTmy-0" />
        <mxCell id="Q-vmy_DxmDbjZRM_NTmy-1" parent="Q-vmy_DxmDbjZRM_NTmy-0" />
        <mxCell id="fDD50osWGfqvHUBUw5RR-1" value="" style="edgeStyle=orthogonalEdgeStyle;rounded=0;orthogonalLoop=1;jettySize=auto;html=1;" edge="1" parent="Q-vmy_DxmDbjZRM_NTmy-1" source="HIhKN5L5iSpRJMQ6hExv-0" target="fDD50osWGfqvHUBUw5RR-0">
          <mxGeometry relative="1" as="geometry" />
        </mxCell>
        <mxCell id="HIhKN5L5iSpRJMQ6hExv-0" value="获取30年历史气象和辐射数据" style="rounded=1;whiteSpace=wrap;html=1;" vertex="1" parent="Q-vmy_DxmDbjZRM_NTmy-1">
          <mxGeometry x="180" y="80" width="90" height="40" as="geometry" />
        </mxCell>
        <mxCell id="fDD50osWGfqvHUBUw5RR-3" value="" style="edgeStyle=orthogonalEdgeStyle;rounded=0;orthogonalLoop=1;jettySize=auto;html=1;" edge="1" parent="Q-vmy_DxmDbjZRM_NTmy-1" source="fDD50osWGfqvHUBUw5RR-0" target="fDD50osWGfqvHUBUw5RR-2">
          <mxGeometry relative="1" as="geometry" />
        </mxCell>
        <mxCell id="nAirORN2SGwKIJETk05--64" value="" style="edgeStyle=orthogonalEdgeStyle;rounded=0;orthogonalLoop=1;jettySize=auto;html=1;" edge="1" parent="Q-vmy_DxmDbjZRM_NTmy-1" source="fDD50osWGfqvHUBUw5RR-0" target="nAirORN2SGwKIJETk05--63">
          <mxGeometry relative="1" as="geometry" />
        </mxCell>
        <mxCell id="fDD50osWGfqvHUBUw5RR-0" value="处理数据" style="rounded=1;whiteSpace=wrap;html=1;" vertex="1" parent="Q-vmy_DxmDbjZRM_NTmy-1">
          <mxGeometry x="180" y="220" width="90" height="40" as="geometry" />
        </mxCell>
        <mxCell id="fDD50osWGfqvHUBUw5RR-5" value="" style="edgeStyle=orthogonalEdgeStyle;rounded=0;orthogonalLoop=1;jettySize=auto;html=1;" edge="1" parent="Q-vmy_DxmDbjZRM_NTmy-1" source="fDD50osWGfqvHUBUw5RR-2" target="fDD50osWGfqvHUBUw5RR-4">
          <mxGeometry relative="1" as="geometry" />
        </mxCell>
        <mxCell id="fDD50osWGfqvHUBUw5RR-7" value="" style="edgeStyle=orthogonalEdgeStyle;rounded=0;orthogonalLoop=1;jettySize=auto;html=1;" edge="1" parent="Q-vmy_DxmDbjZRM_NTmy-1" source="fDD50osWGfqvHUBUw5RR-2" target="fDD50osWGfqvHUBUw5RR-6">
          <mxGeometry relative="1" as="geometry" />
        </mxCell>
        <mxCell id="fDD50osWGfqvHUBUw5RR-2" value="特征工程" style="rounded=1;whiteSpace=wrap;html=1;" vertex="1" parent="Q-vmy_DxmDbjZRM_NTmy-1">
          <mxGeometry x="180" y="340" width="90" height="40" as="geometry" />
        </mxCell>
        <mxCell id="fDD50osWGfqvHUBUw5RR-4" value="生成气象年矩阵&lt;br&gt;{pow(30,12)，12}" style="rounded=1;whiteSpace=wrap;html=1;" vertex="1" parent="Q-vmy_DxmDbjZRM_NTmy-1">
          <mxGeometry x="180" y="460" width="90" height="40" as="geometry" />
        </mxCell>
        <mxCell id="nAirORN2SGwKIJETk05--78" style="edgeStyle=orthogonalEdgeStyle;rounded=0;orthogonalLoop=1;jettySize=auto;html=1;entryX=0;entryY=0.5;entryDx=0;entryDy=0;" edge="1" parent="Q-vmy_DxmDbjZRM_NTmy-1" source="fDD50osWGfqvHUBUw5RR-6" target="nAirORN2SGwKIJETk05--69">
          <mxGeometry relative="1" as="geometry" />
        </mxCell>
        <mxCell id="nAirORN2SGwKIJETk05--79" style="edgeStyle=orthogonalEdgeStyle;rounded=0;orthogonalLoop=1;jettySize=auto;html=1;entryX=0;entryY=0.5;entryDx=0;entryDy=0;" edge="1" parent="Q-vmy_DxmDbjZRM_NTmy-1" source="fDD50osWGfqvHUBUw5RR-6" target="nAirORN2SGwKIJETk05--73">
          <mxGeometry relative="1" as="geometry">
            <mxPoint x="395" y="450" as="targetPoint" />
            <Array as="points">
              <mxPoint x="395" y="440" />
            </Array>
          </mxGeometry>
        </mxCell>
        <mxCell id="fDD50osWGfqvHUBUw5RR-6" value="气象年的气象月" style="rounded=1;whiteSpace=wrap;html=1;" vertex="1" parent="Q-vmy_DxmDbjZRM_NTmy-1">
          <mxGeometry x="350" y="340" width="90" height="40" as="geometry" />
        </mxCell>
        <mxCell id="nAirORN2SGwKIJETk05--9" value="" style="shape=table;html=1;whiteSpace=wrap;startSize=0;container=1;collapsible=0;childLayout=tableLayout;" vertex="1" parent="Q-vmy_DxmDbjZRM_NTmy-1">
          <mxGeometry x="460" y="20" width="720" height="160" as="geometry" />
        </mxCell>
        <mxCell id="nAirORN2SGwKIJETk05--10" value="" style="shape=partialRectangle;html=1;whiteSpace=wrap;collapsible=0;dropTarget=0;pointerEvents=0;fillColor=none;top=0;left=0;bottom=0;right=0;points=[[0,0.5],[1,0.5]];portConstraint=eastwest;" vertex="1" parent="nAirORN2SGwKIJETk05--9">
          <mxGeometry width="720" height="40" as="geometry" />
        </mxCell>
        <mxCell id="nAirORN2SGwKIJETk05--11" value="Id" style="shape=partialRectangle;html=1;whiteSpace=wrap;connectable=0;overflow=hidden;fillColor=none;top=0;left=0;bottom=0;right=0;" vertex="1" parent="nAirORN2SGwKIJETk05--10">
          <mxGeometry width="60" height="40" as="geometry" />
        </mxCell>
        <mxCell id="nAirORN2SGwKIJETk05--12" value="1月最高温度" style="shape=partialRectangle;html=1;whiteSpace=wrap;connectable=0;overflow=hidden;fillColor=none;top=0;left=0;bottom=0;right=0;" vertex="1" parent="nAirORN2SGwKIJETk05--10">
          <mxGeometry x="60" width="60" height="40" as="geometry" />
        </mxCell>
        <mxCell id="nAirORN2SGwKIJETk05--13" value="1月最高温度日期" style="shape=partialRectangle;html=1;whiteSpace=wrap;connectable=0;overflow=hidden;fillColor=none;top=0;left=0;bottom=0;right=0;" vertex="1" parent="nAirORN2SGwKIJETk05--10">
          <mxGeometry x="120" width="60" height="40" as="geometry" />
        </mxCell>
        <mxCell id="nAirORN2SGwKIJETk05--14" value="1月最低温度" style="shape=partialRectangle;html=1;whiteSpace=wrap;connectable=0;overflow=hidden;fillColor=none;top=0;left=0;bottom=0;right=0;" vertex="1" parent="nAirORN2SGwKIJETk05--10">
          <mxGeometry x="180" width="60" height="40" as="geometry" />
        </mxCell>
        <mxCell id="nAirORN2SGwKIJETk05--15" value="1月最低温度日期" style="shape=partialRectangle;html=1;whiteSpace=wrap;connectable=0;overflow=hidden;fillColor=none;top=0;left=0;bottom=0;right=0;" vertex="1" parent="nAirORN2SGwKIJETk05--10">
          <mxGeometry x="240" width="60" height="40" as="geometry" />
        </mxCell>
        <mxCell id="nAirORN2SGwKIJETk05--16" value="25%" style="shape=partialRectangle;html=1;whiteSpace=wrap;connectable=0;overflow=hidden;fillColor=none;top=0;left=0;bottom=0;right=0;" vertex="1" parent="nAirORN2SGwKIJETk05--10">
          <mxGeometry x="300" width="60" height="40" as="geometry" />
        </mxCell>
        <mxCell id="nAirORN2SGwKIJETk05--17" value="50%" style="shape=partialRectangle;html=1;whiteSpace=wrap;connectable=0;overflow=hidden;fillColor=none;top=0;left=0;bottom=0;right=0;" vertex="1" parent="nAirORN2SGwKIJETk05--10">
          <mxGeometry x="360" width="60" height="40" as="geometry" />
        </mxCell>
        <mxCell id="nAirORN2SGwKIJETk05--18" value="75%" style="shape=partialRectangle;html=1;whiteSpace=wrap;connectable=0;overflow=hidden;fillColor=none;top=0;left=0;bottom=0;right=0;" vertex="1" parent="nAirORN2SGwKIJETk05--10">
          <mxGeometry x="420" width="60" height="40" as="geometry" />
        </mxCell>
        <mxCell id="nAirORN2SGwKIJETk05--19" value="月温度中位数" style="shape=partialRectangle;html=1;whiteSpace=wrap;connectable=0;overflow=hidden;fillColor=none;top=0;left=0;bottom=0;right=0;" vertex="1" parent="nAirORN2SGwKIJETk05--10">
          <mxGeometry x="480" width="60" height="40" as="geometry" />
        </mxCell>
        <mxCell id="nAirORN2SGwKIJETk05--20" value="月平均温度" style="shape=partialRectangle;html=1;whiteSpace=wrap;connectable=0;overflow=hidden;fillColor=none;top=0;left=0;bottom=0;right=0;" vertex="1" parent="nAirORN2SGwKIJETk05--10">
          <mxGeometry x="540" width="60" height="40" as="geometry" />
        </mxCell>
        <mxCell id="nAirORN2SGwKIJETk05--21" value="1月天数" style="shape=partialRectangle;html=1;whiteSpace=wrap;connectable=0;overflow=hidden;fillColor=none;top=0;left=0;bottom=0;right=0;" vertex="1" parent="nAirORN2SGwKIJETk05--10">
          <mxGeometry x="600" width="60" height="40" as="geometry" />
        </mxCell>
        <mxCell id="nAirORN2SGwKIJETk05--22" value="" style="shape=partialRectangle;html=1;whiteSpace=wrap;connectable=0;overflow=hidden;fillColor=none;top=0;left=0;bottom=0;right=0;" vertex="1" parent="nAirORN2SGwKIJETk05--10">
          <mxGeometry x="660" width="60" height="40" as="geometry" />
        </mxCell>
        <mxCell id="nAirORN2SGwKIJETk05--23" value="" style="shape=partialRectangle;html=1;whiteSpace=wrap;collapsible=0;dropTarget=0;pointerEvents=0;fillColor=none;top=0;left=0;bottom=0;right=0;points=[[0,0.5],[1,0.5]];portConstraint=eastwest;" vertex="1" parent="nAirORN2SGwKIJETk05--9">
          <mxGeometry y="40" width="720" height="40" as="geometry" />
        </mxCell>
        <mxCell id="nAirORN2SGwKIJETk05--24" value="1" style="shape=partialRectangle;html=1;whiteSpace=wrap;connectable=0;overflow=hidden;fillColor=none;top=0;left=0;bottom=0;right=0;" vertex="1" parent="nAirORN2SGwKIJETk05--23">
          <mxGeometry width="60" height="40" as="geometry" />
        </mxCell>
        <mxCell id="nAirORN2SGwKIJETk05--25" value="35.5" style="shape=partialRectangle;html=1;whiteSpace=wrap;connectable=0;overflow=hidden;fillColor=none;top=0;left=0;bottom=0;right=0;" vertex="1" parent="nAirORN2SGwKIJETk05--23">
          <mxGeometry x="60" width="60" height="40" as="geometry" />
        </mxCell>
        <mxCell id="nAirORN2SGwKIJETk05--26" value="1" style="shape=partialRectangle;html=1;whiteSpace=wrap;connectable=0;overflow=hidden;fillColor=none;top=0;left=0;bottom=0;right=0;" vertex="1" parent="nAirORN2SGwKIJETk05--23">
          <mxGeometry x="120" width="60" height="40" as="geometry" />
        </mxCell>
        <mxCell id="nAirORN2SGwKIJETk05--27" value="21" style="shape=partialRectangle;html=1;whiteSpace=wrap;connectable=0;overflow=hidden;fillColor=none;top=0;left=0;bottom=0;right=0;" vertex="1" parent="nAirORN2SGwKIJETk05--23">
          <mxGeometry x="180" width="60" height="40" as="geometry" />
        </mxCell>
        <mxCell id="nAirORN2SGwKIJETk05--28" value="28" style="shape=partialRectangle;html=1;whiteSpace=wrap;connectable=0;overflow=hidden;fillColor=none;top=0;left=0;bottom=0;right=0;" vertex="1" parent="nAirORN2SGwKIJETk05--23">
          <mxGeometry x="240" width="60" height="40" as="geometry" />
        </mxCell>
        <mxCell id="nAirORN2SGwKIJETk05--29" value="6" style="shape=partialRectangle;html=1;whiteSpace=wrap;connectable=0;overflow=hidden;fillColor=none;top=0;left=0;bottom=0;right=0;" vertex="1" parent="nAirORN2SGwKIJETk05--23">
          <mxGeometry x="300" width="60" height="40" as="geometry" />
        </mxCell>
        <mxCell id="nAirORN2SGwKIJETk05--30" value="4" style="shape=partialRectangle;html=1;whiteSpace=wrap;connectable=0;overflow=hidden;fillColor=none;top=0;left=0;bottom=0;right=0;" vertex="1" parent="nAirORN2SGwKIJETk05--23">
          <mxGeometry x="360" width="60" height="40" as="geometry" />
        </mxCell>
        <mxCell id="nAirORN2SGwKIJETk05--31" value="10" style="shape=partialRectangle;html=1;whiteSpace=wrap;connectable=0;overflow=hidden;fillColor=none;top=0;left=0;bottom=0;right=0;" vertex="1" parent="nAirORN2SGwKIJETk05--23">
          <mxGeometry x="420" width="60" height="40" as="geometry" />
        </mxCell>
        <mxCell id="nAirORN2SGwKIJETk05--32" value="27" style="shape=partialRectangle;html=1;whiteSpace=wrap;connectable=0;overflow=hidden;fillColor=none;top=0;left=0;bottom=0;right=0;" vertex="1" parent="nAirORN2SGwKIJETk05--23">
          <mxGeometry x="480" width="60" height="40" as="geometry" />
        </mxCell>
        <mxCell id="nAirORN2SGwKIJETk05--33" value="31" style="shape=partialRectangle;html=1;whiteSpace=wrap;connectable=0;overflow=hidden;fillColor=none;top=0;left=0;bottom=0;right=0;" vertex="1" parent="nAirORN2SGwKIJETk05--23">
          <mxGeometry x="540" width="60" height="40" as="geometry" />
        </mxCell>
        <mxCell id="nAirORN2SGwKIJETk05--34" value="30" style="shape=partialRectangle;html=1;whiteSpace=wrap;connectable=0;overflow=hidden;fillColor=none;top=0;left=0;bottom=0;right=0;" vertex="1" parent="nAirORN2SGwKIJETk05--23">
          <mxGeometry x="600" width="60" height="40" as="geometry" />
        </mxCell>
        <mxCell id="nAirORN2SGwKIJETk05--35" value="" style="shape=partialRectangle;html=1;whiteSpace=wrap;connectable=0;overflow=hidden;fillColor=none;top=0;left=0;bottom=0;right=0;" vertex="1" parent="nAirORN2SGwKIJETk05--23">
          <mxGeometry x="660" width="60" height="40" as="geometry" />
        </mxCell>
        <mxCell id="nAirORN2SGwKIJETk05--36" value="" style="shape=partialRectangle;html=1;whiteSpace=wrap;collapsible=0;dropTarget=0;pointerEvents=0;fillColor=none;top=0;left=0;bottom=0;right=0;points=[[0,0.5],[1,0.5]];portConstraint=eastwest;" vertex="1" parent="nAirORN2SGwKIJETk05--9">
          <mxGeometry y="80" width="720" height="40" as="geometry" />
        </mxCell>
        <mxCell id="nAirORN2SGwKIJETk05--37" value="2" style="shape=partialRectangle;html=1;whiteSpace=wrap;connectable=0;overflow=hidden;fillColor=none;top=0;left=0;bottom=0;right=0;" vertex="1" parent="nAirORN2SGwKIJETk05--36">
          <mxGeometry width="60" height="40" as="geometry" />
        </mxCell>
        <mxCell id="nAirORN2SGwKIJETk05--38" value="" style="shape=partialRectangle;html=1;whiteSpace=wrap;connectable=0;overflow=hidden;fillColor=none;top=0;left=0;bottom=0;right=0;" vertex="1" parent="nAirORN2SGwKIJETk05--36">
          <mxGeometry x="60" width="60" height="40" as="geometry" />
        </mxCell>
        <mxCell id="nAirORN2SGwKIJETk05--39" value="" style="shape=partialRectangle;html=1;whiteSpace=wrap;connectable=0;overflow=hidden;fillColor=none;top=0;left=0;bottom=0;right=0;" vertex="1" parent="nAirORN2SGwKIJETk05--36">
          <mxGeometry x="120" width="60" height="40" as="geometry" />
        </mxCell>
        <mxCell id="nAirORN2SGwKIJETk05--40" value="" style="shape=partialRectangle;html=1;whiteSpace=wrap;connectable=0;overflow=hidden;fillColor=none;top=0;left=0;bottom=0;right=0;" vertex="1" parent="nAirORN2SGwKIJETk05--36">
          <mxGeometry x="180" width="60" height="40" as="geometry" />
        </mxCell>
        <mxCell id="nAirORN2SGwKIJETk05--41" value="" style="shape=partialRectangle;html=1;whiteSpace=wrap;connectable=0;overflow=hidden;fillColor=none;top=0;left=0;bottom=0;right=0;" vertex="1" parent="nAirORN2SGwKIJETk05--36">
          <mxGeometry x="240" width="60" height="40" as="geometry" />
        </mxCell>
        <mxCell id="nAirORN2SGwKIJETk05--42" value="" style="shape=partialRectangle;html=1;whiteSpace=wrap;connectable=0;overflow=hidden;fillColor=none;top=0;left=0;bottom=0;right=0;" vertex="1" parent="nAirORN2SGwKIJETk05--36">
          <mxGeometry x="300" width="60" height="40" as="geometry" />
        </mxCell>
        <mxCell id="nAirORN2SGwKIJETk05--43" value="" style="shape=partialRectangle;html=1;whiteSpace=wrap;connectable=0;overflow=hidden;fillColor=none;top=0;left=0;bottom=0;right=0;" vertex="1" parent="nAirORN2SGwKIJETk05--36">
          <mxGeometry x="360" width="60" height="40" as="geometry" />
        </mxCell>
        <mxCell id="nAirORN2SGwKIJETk05--44" value="" style="shape=partialRectangle;html=1;whiteSpace=wrap;connectable=0;overflow=hidden;fillColor=none;top=0;left=0;bottom=0;right=0;" vertex="1" parent="nAirORN2SGwKIJETk05--36">
          <mxGeometry x="420" width="60" height="40" as="geometry" />
        </mxCell>
        <mxCell id="nAirORN2SGwKIJETk05--45" value="" style="shape=partialRectangle;html=1;whiteSpace=wrap;connectable=0;overflow=hidden;fillColor=none;top=0;left=0;bottom=0;right=0;" vertex="1" parent="nAirORN2SGwKIJETk05--36">
          <mxGeometry x="480" width="60" height="40" as="geometry" />
        </mxCell>
        <mxCell id="nAirORN2SGwKIJETk05--46" value="" style="shape=partialRectangle;html=1;whiteSpace=wrap;connectable=0;overflow=hidden;fillColor=none;top=0;left=0;bottom=0;right=0;" vertex="1" parent="nAirORN2SGwKIJETk05--36">
          <mxGeometry x="540" width="60" height="40" as="geometry" />
        </mxCell>
        <mxCell id="nAirORN2SGwKIJETk05--47" value="" style="shape=partialRectangle;html=1;whiteSpace=wrap;connectable=0;overflow=hidden;fillColor=none;top=0;left=0;bottom=0;right=0;" vertex="1" parent="nAirORN2SGwKIJETk05--36">
          <mxGeometry x="600" width="60" height="40" as="geometry" />
        </mxCell>
        <mxCell id="nAirORN2SGwKIJETk05--48" value="" style="shape=partialRectangle;html=1;whiteSpace=wrap;connectable=0;overflow=hidden;fillColor=none;top=0;left=0;bottom=0;right=0;" vertex="1" parent="nAirORN2SGwKIJETk05--36">
          <mxGeometry x="660" width="60" height="40" as="geometry" />
        </mxCell>
        <mxCell id="nAirORN2SGwKIJETk05--49" value="" style="shape=partialRectangle;html=1;whiteSpace=wrap;collapsible=0;dropTarget=0;pointerEvents=0;fillColor=none;top=0;left=0;bottom=0;right=0;points=[[0,0.5],[1,0.5]];portConstraint=eastwest;" vertex="1" parent="nAirORN2SGwKIJETk05--9">
          <mxGeometry y="120" width="720" height="40" as="geometry" />
        </mxCell>
        <mxCell id="nAirORN2SGwKIJETk05--50" value="3" style="shape=partialRectangle;html=1;whiteSpace=wrap;connectable=0;overflow=hidden;fillColor=none;top=0;left=0;bottom=0;right=0;" vertex="1" parent="nAirORN2SGwKIJETk05--49">
          <mxGeometry width="60" height="40" as="geometry" />
        </mxCell>
        <mxCell id="nAirORN2SGwKIJETk05--51" value="" style="shape=partialRectangle;html=1;whiteSpace=wrap;connectable=0;overflow=hidden;fillColor=none;top=0;left=0;bottom=0;right=0;" vertex="1" parent="nAirORN2SGwKIJETk05--49">
          <mxGeometry x="60" width="60" height="40" as="geometry" />
        </mxCell>
        <mxCell id="nAirORN2SGwKIJETk05--52" value="" style="shape=partialRectangle;html=1;whiteSpace=wrap;connectable=0;overflow=hidden;fillColor=none;top=0;left=0;bottom=0;right=0;" vertex="1" parent="nAirORN2SGwKIJETk05--49">
          <mxGeometry x="120" width="60" height="40" as="geometry" />
        </mxCell>
        <mxCell id="nAirORN2SGwKIJETk05--53" value="" style="shape=partialRectangle;html=1;whiteSpace=wrap;connectable=0;overflow=hidden;fillColor=none;top=0;left=0;bottom=0;right=0;" vertex="1" parent="nAirORN2SGwKIJETk05--49">
          <mxGeometry x="180" width="60" height="40" as="geometry" />
        </mxCell>
        <mxCell id="nAirORN2SGwKIJETk05--54" value="" style="shape=partialRectangle;html=1;whiteSpace=wrap;connectable=0;overflow=hidden;fillColor=none;top=0;left=0;bottom=0;right=0;" vertex="1" parent="nAirORN2SGwKIJETk05--49">
          <mxGeometry x="240" width="60" height="40" as="geometry" />
        </mxCell>
        <mxCell id="nAirORN2SGwKIJETk05--55" value="" style="shape=partialRectangle;html=1;whiteSpace=wrap;connectable=0;overflow=hidden;fillColor=none;top=0;left=0;bottom=0;right=0;" vertex="1" parent="nAirORN2SGwKIJETk05--49">
          <mxGeometry x="300" width="60" height="40" as="geometry" />
        </mxCell>
        <mxCell id="nAirORN2SGwKIJETk05--56" value="" style="shape=partialRectangle;html=1;whiteSpace=wrap;connectable=0;overflow=hidden;fillColor=none;top=0;left=0;bottom=0;right=0;" vertex="1" parent="nAirORN2SGwKIJETk05--49">
          <mxGeometry x="360" width="60" height="40" as="geometry" />
        </mxCell>
        <mxCell id="nAirORN2SGwKIJETk05--57" value="" style="shape=partialRectangle;html=1;whiteSpace=wrap;connectable=0;overflow=hidden;fillColor=none;top=0;left=0;bottom=0;right=0;" vertex="1" parent="nAirORN2SGwKIJETk05--49">
          <mxGeometry x="420" width="60" height="40" as="geometry" />
        </mxCell>
        <mxCell id="nAirORN2SGwKIJETk05--58" value="" style="shape=partialRectangle;html=1;whiteSpace=wrap;connectable=0;overflow=hidden;fillColor=none;top=0;left=0;bottom=0;right=0;" vertex="1" parent="nAirORN2SGwKIJETk05--49">
          <mxGeometry x="480" width="60" height="40" as="geometry" />
        </mxCell>
        <mxCell id="nAirORN2SGwKIJETk05--59" value="" style="shape=partialRectangle;html=1;whiteSpace=wrap;connectable=0;overflow=hidden;fillColor=none;top=0;left=0;bottom=0;right=0;" vertex="1" parent="nAirORN2SGwKIJETk05--49">
          <mxGeometry x="540" width="60" height="40" as="geometry" />
        </mxCell>
        <mxCell id="nAirORN2SGwKIJETk05--60" value="" style="shape=partialRectangle;html=1;whiteSpace=wrap;connectable=0;overflow=hidden;fillColor=none;top=0;left=0;bottom=0;right=0;" vertex="1" parent="nAirORN2SGwKIJETk05--49">
          <mxGeometry x="600" width="60" height="40" as="geometry" />
        </mxCell>
        <mxCell id="nAirORN2SGwKIJETk05--61" value="" style="shape=partialRectangle;html=1;whiteSpace=wrap;connectable=0;overflow=hidden;fillColor=none;top=0;left=0;bottom=0;right=0;" vertex="1" parent="nAirORN2SGwKIJETk05--49">
          <mxGeometry x="660" width="60" height="40" as="geometry" />
        </mxCell>
        <mxCell id="nAirORN2SGwKIJETk05--75" value="" style="edgeStyle=orthogonalEdgeStyle;rounded=0;orthogonalLoop=1;jettySize=auto;html=1;" edge="1" parent="Q-vmy_DxmDbjZRM_NTmy-1" source="nAirORN2SGwKIJETk05--63" target="nAirORN2SGwKIJETk05--74">
          <mxGeometry relative="1" as="geometry" />
        </mxCell>
        <mxCell id="nAirORN2SGwKIJETk05--63" value="生成训练数据和测试数据" style="rounded=1;whiteSpace=wrap;html=1;" vertex="1" parent="Q-vmy_DxmDbjZRM_NTmy-1">
          <mxGeometry x="350" y="220" width="90" height="40" as="geometry" />
        </mxCell>
        <mxCell id="nAirORN2SGwKIJETk05--69" value="特征包含{1月最高温度，1月最高温度日期，1月最低温度，11月最低温度日期，1月25%，1月50%，1月75%，1月温度中位数，1月平均温度，1月天数，...,12月最高温度日期，12最高温度日期}" style="rounded=1;whiteSpace=wrap;html=1;" vertex="1" parent="Q-vmy_DxmDbjZRM_NTmy-1">
          <mxGeometry x="520" y="330" width="380" height="60" as="geometry" />
        </mxCell>
        <mxCell id="nAirORN2SGwKIJETk05--73" value="标签（预测值，与长期值的接近程度）投票得分" style="rounded=1;whiteSpace=wrap;html=1;" vertex="1" parent="Q-vmy_DxmDbjZRM_NTmy-1">
          <mxGeometry x="520" y="420" width="250" height="40" as="geometry" />
        </mxCell>
        <mxCell id="nAirORN2SGwKIJETk05--77" value="" style="edgeStyle=orthogonalEdgeStyle;rounded=0;orthogonalLoop=1;jettySize=auto;html=1;" edge="1" parent="Q-vmy_DxmDbjZRM_NTmy-1" source="nAirORN2SGwKIJETk05--74" target="nAirORN2SGwKIJETk05--76">
          <mxGeometry relative="1" as="geometry" />
        </mxCell>
        <mxCell id="nAirORN2SGwKIJETk05--74" value="训练数据{N12*30}" style="rounded=1;whiteSpace=wrap;html=1;" vertex="1" parent="Q-vmy_DxmDbjZRM_NTmy-1">
          <mxGeometry x="520" y="220" width="90" height="40" as="geometry" />
        </mxCell>
        <mxCell id="nAirORN2SGwKIJETk05--76" value="测试数据使用Sandia等方法生成典型气象年" style="rounded=1;whiteSpace=wrap;html=1;" vertex="1" parent="Q-vmy_DxmDbjZRM_NTmy-1">
          <mxGeometry x="690" y="220" width="90" height="40" as="geometry" />
        </mxCell>
      </root>
    </mxGraphModel>
  </diagram>
</mxfile>
